/* XPM */
static char *_522808361522[] = {
/* columns rows colors chars-per-pixel */
"32 32 215 2 ",
"   c #3F3B3A",
".  c #3B3D3B",
"X  c #3D3D3A",
"o  c #3D3D3B",
"O  c #3F3C3B",
"+  c #3A3D3C",
"@  c #3A3D3D",
"#  c #393E3C",
"$  c #383E3D",
"%  c #393E3D",
"&  c #3A3E3C",
"*  c #3B3E3C",
"=  c #3A3E3D",
"-  c #393E3E",
";  c #3A3E3E",
":  c #3B3E3E",
">  c #3A3F3E",
",  c #3B3F3E",
"<  c #3E3D3C",
"1  c #3C3F3E",
"2  c #7C1D1F",
"3  c #4F3635",
"4  c #4E3736",
"5  c #423B39",
"6  c #423A3A",
"7  c #483838",
"8  c #4C3B39",
"9  c #483C3A",
"0  c #4A3C3B",
"q  c #553737",
"w  c #523836",
"e  c #543937",
"r  c #553B3A",
"t  c #58393A",
"y  c #652F2E",
"u  c #682D2D",
"i  c #732C2C",
"p  c #603534",
"a  c #643939",
"s  c #653939",
"d  c #643A39",
"f  c #683938",
"g  c #6E3838",
"h  c #6F3838",
"j  c #7B3737",
"k  c #733739",
"l  c #713838",
"z  c #773838",
"x  c #841F21",
"c  c #851F21",
"v  c #861F21",
"b  c #861F22",
"n  c #862022",
"m  c #872022",
"M  c #882022",
"N  c #892022",
"B  c #8A2023",
"V  c #8A2123",
"C  c #8B2123",
"Z  c #8C2123",
"A  c #8D2124",
"S  c #892728",
"D  c #8E2829",
"F  c #902829",
"G  c #93282A",
"H  c #952B2C",
"J  c #932D2D",
"K  c #9A2A2C",
"L  c #873636",
"P  c #8E3537",
"I  c #8F3537",
"U  c #943535",
"Y  c #993336",
"T  c #993435",
"R  c #A12A2A",
"E  c #A4282A",
"W  c #AF2929",
"Q  c #AE292A",
"!  c #B2292B",
"~  c #B42A2B",
"^  c #B12A2C",
"/  c #B52B2D",
"(  c #B52B2E",
")  c #B62B2E",
"_  c #B72B2E",
"`  c #B82B2E",
"'  c #B82C2E",
"]  c #B92C2F",
"[  c #BA2C2F",
"{  c #BB2C2F",
"}  c #BC2D2F",
"|  c #BE2C2E",
" . c #BD2D30",
".. c #BE2D30",
"X. c #BF2D30",
"o. c #BC2F31",
"O. c #A03336",
"+. c #A53334",
"@. c #A23436",
"#. c #AB3234",
"$. c #BA3132",
"%. c #BC3233",
"&. c #BD3D3E",
"*. c #C12C2F",
"=. c #C32E30",
"-. c #C32E31",
";. c #C62D30",
":. c #C42E31",
">. c #C42F31",
",. c #C42F32",
"<. c #C52F32",
"1. c #C62F32",
"2. c #C72F32",
"3. c #CB2F31",
"4. c #C82F32",
"5. c #CA2F32",
"6. c #CB2F32",
"7. c #CB2F33",
"8. c #CC2F31",
"9. c #CC2F32",
"0. c #CD2F32",
"q. c #CC2E33",
"w. c #CC2F33",
"e. c #C92F34",
"r. c #C33132",
"t. c #C73033",
"y. c #C53135",
"u. c #C73034",
"i. c #C73134",
"p. c #C93032",
"a. c #C83033",
"s. c #C93033",
"d. c #C93133",
"f. c #CA3032",
"g. c #CB3032",
"h. c #CA3033",
"j. c #CB3033",
"k. c #CA3133",
"l. c #C83233",
"z. c #CC3031",
"x. c #CC3032",
"c. c #CC3033",
"v. c #CD3033",
"b. c #CC3133",
"n. c #CD3133",
"m. c #CA3134",
"M. c #CB3134",
"N. c #CB3135",
"B. c #CB3234",
"V. c #CC3034",
"C. c #CD3034",
"Z. c #CC3134",
"A. c #CD3134",
"S. c #C83436",
"D. c #CA3436",
"F. c #CB3A3C",
"G. c #CC3B3D",
"H. c #CB3C3C",
"J. c #CC3F40",
"K. c #9F6463",
"L. c #9E6F6A",
"P. c #9D7C77",
"I. c #C04041",
"U. c #CC4242",
"Y. c #CC4445",
"T. c #CD4747",
"R. c #C14D4D",
"E. c #CE4848",
"W. c #D04F4F",
"Q. c #D05353",
"!. c #D35A5B",
"~. c #D25C5B",
"^. c #D15D5D",
"/. c #D15E5C",
"(. c #D4605F",
"). c #D46461",
"_. c #D46662",
"`. c #D46564",
"'. c #D56664",
"]. c #D96E6D",
"[. c #D9726F",
"{. c #D77270",
"}. c #D87472",
"|. c #DA7572",
" X c #B5807B",
".X c #D9827F",
"XX c #B6ABA3",
"oX c #DC8481",
"OX c #DD8885",
"+X c #DD8E89",
"@X c #D2938D",
"#X c #DE938E",
"$X c #DF938E",
"%X c #DE948F",
"&X c #E19590",
"*X c #DCB2A9",
"=X c #DCB4AB",
"-X c #DFBEB4",
";X c #E6A8A1",
":X c #E6ABA3",
">X c #E6ADA6",
",X c #E7AFA8",
"<X c #E5B0A8",
"1X c #E9B7B0",
"2X c #EABCB5",
"3X c #EDCAC0",
"4X c #E1D2C7",
"5X c #E8D3C9",
"6X c #E9D4C8",
"7X c #F1D8CC",
"8X c #F1D8CD",
"9X c #F3DACF",
"0X c #F1DCD2",
"qX c #F3DDD2",
"wX c #F4E9DC",
/* pixels */
"F K K K K K K K K K K K K K K K K K K K K K K K K K K K K K K G ",
"X.A.A.A.A.A.A.A.A.A.A.A.A.A.A.A.A.A.A.A.A.A.A.A.A.A.A.A.A.A.A.:.",
"X.A.A.A.A.A.A.A.A.A.A.A.A.A.A.A.A.A.A.A.A.A.A.A.A.A.A.A.A.A.A.:.",
"X.A.A.A.A.A.A.A.A.A.g.g.A.6.g.A.6.A.x.6.x.x.A.A.A.A.A.A.A.A.A.:.",
"X.A.A.A.A.A.A.A.A.A.6.e.#.P j h h z L @.M.7.w.A.A.A.A.A.A.A.A.r.",
"X.A.A.A.A.A.A.A.M.g.U 8 - + , + + + , + 9 P r.g.A.A.A.A.A.A.A.:.",
" .M.A.A.A.A.A.A.6.Y + $ + , , , , , , , + + s 7.w.A.A.A.A.A.A.:.",
"X.A.A.A.A.A.A.A.M.d + , , , , , , , , , , , + Y A.A.A.A.A.A.A.M.",
" .A.A.A.A.A.A.A.g.0 + , , , , , , , , , , , + h x.A.A.A.A.A.A.r.",
"[ A.A.A.A.A.A.A.M.o + , , , , , , , , , , , + r A.A.A.A.A.A.A.6.",
"[ A.A.A.A.A.A.A.M.* + , , , , , , , , , , , + e 7.w.x.A.A.A.A.:.",
"} A.A.A.A.A.A.x.y.* , , , , , , , , , , , , $ e y.w.A.A.A.A.A.6.",
"} A.A.A.A.r.k s r + , , , , , , , , , , , , + , 8 @.6.A.A.A.A.:.",
"[ A.A.A.A.$.5 + + , , 1 , , , , , , , , , , , + + o @.6.A.A.M.M.",
"} A.A.A.A.6.R y 5 + + * , , , , , , , , , , , , + + s A.A.A.A.:.",
"[ A.A.A.A.x.g.=.E i 8 + + , + , , , , , , , , , , + p w.A.A.A.M.",
" .A.A.A.A.A.A.A.w.r.^ D y 7 o + , + , , 1 1 1 , + * G A.A.A.A.g.",
"` A.A.A.A.A.g.g.%.I.&. .| W D u 4 o + + 6 6 , , e S :.M.A.A.A.M.",
" .M.A.A.A.A.x.^.6X8X:X>X*X@XR.} ^ J L.XXP.K.P.4X=X6.g.7.A.A.A.6.",
"` M.A.A.A.A.6.H.qX{.6.6.6.^.qX6X-XwX;XU.C.C.C.2X$X7.M.A.A.A.x.y.",
" .A.A.A.A.A.A.6.&XoXw.~ W w._.qX,X8XM.=.Q | 6.3XU.6.A.A.A.A.A.M.",
"~ A.A.A.A.A.A.A.G.1XM.w.w.w.).{.7.,XM.w.6.7.).OXA.A.A.A.A.A.M.6.",
" .A.A.A.A.A.A.A.A.W.%XE.y.~.+XM.7.Q.$XY.y.).|.M.7.A.A.A.A.A.A.M.",
"~ A.A.A.A.A.A.A.6.M.M.`.|.!.6.A.M.6.F.].{.W.A.A.A.A.A.A.A.A.M.6.",
") A.A.A.A.A.A.A.A.A.A.w.x.x.A.w.A.6.A.x.6.A.7.A.A.A.A.A.A.A.A.6.",
") A.A.A.A.A.A.A.A.A.A.A.A.A.A.A.A.A.A.A.A.A.A.A.A.A.A.A.A.A.A.M.",
") A.A.A.A.A.A.A.A.A.A.A.A.A.A.A.A.A.A.A.A.A.A.A.A.A.A.A.A.A.A.6.",
") A.A.A.A.A.A.A.A.A.A.A.A.A.A.A.A.A.A.A.A.A.A.A.A.A.A.A.A.A.A.M.",
"~ A.A.A.A.A.A.A.A.A.A.A.A.A.A.A.A.A.A.A.A.A.A.A.A.A.A.A.A.A.A.6.",
"( A.A.A.A.A.A.A.A.A.A.A.A.A.A.A.A.A.A.A.A.A.A.A.A.A.A.A.A.A.A.M.",
"( A.A.A.A.M.A.A.A.A.A.A.A.A.A.A.A.A.A.A.A.A.A.A.A.A.A.A.A.A.A.6.",
"2 A A A A A A A M Z A M A M A M M M M M M M M m m m m M x x x x "
};
