/* XPM */
static char *_522808371911[] = {
/* columns rows colors chars-per-pixel */
"64 64 158 2 ",
"   c #3D0E0F",
".  c #3F0F10",
"X  c #373F3D",
"o  c #3B3F3E",
"O  c #410F10",
"+  c #451011",
"@  c #4B1213",
"#  c #5D2022",
"$  c #5D322F",
"%  c #4D3735",
"&  c #463A37",
"*  c #493937",
"=  c #433B39",
"-  c #4D3A39",
";  c #523533",
":  c #5B3330",
">  c #533A37",
",  c #593936",
"<  c #543939",
"1  c #5B3B3A",
"2  c #602022",
"3  c #682224",
"4  c #672E2B",
"5  c #6C2D2D",
"6  c #7E2725",
"7  c #722A2B",
"8  c #7A2A2B",
"9  c #63302E",
"0  c #7E302F",
"q  c #612F30",
"w  c #633938",
"e  c #6B3A38",
"r  c #6A3435",
"t  c #703331",
"y  c #7C3736",
"u  c #733938",
"i  c #37403C",
"p  c #38403A",
"a  c #393D40",
"s  c #454640",
"d  c #5B5C59",
"f  c #61605C",
"g  c #606360",
"h  c #736461",
"j  c #777872",
"k  c #797A76",
"l  c #832525",
"z  c #8B2323",
"x  c #802428",
"c  c #8C2B2C",
"v  c #922123",
"b  c #9D2526",
"n  c #9F2628",
"m  c #823636",
"M  c #843538",
"N  c #883738",
"B  c #8A3839",
"V  c #933535",
"C  c #9F3437",
"Z  c #9D3338",
"A  c #A32526",
"S  c #AA2627",
"D  c #A42927",
"F  c #A32629",
"G  c #AB272A",
"H  c #A7282A",
"J  c #AC292B",
"K  c #B22A2C",
"L  c #BB2C2F",
"P  c #AD2E30",
"I  c #BE2D30",
"U  c #A53435",
"Y  c #AC3435",
"T  c #A73439",
"R  c #AB3C3B",
"E  c #B53335",
"W  c #BC3334",
"Q  c #BB3238",
"!  c #CD2F2F",
"~  c #CA312F",
"^  c #C42E31",
"/  c #CC2F32",
"(  c #C53233",
")  c #CD3134",
"_  c #C7363B",
"`  c #C9363A",
"'  c #C93C3E",
"]  c #C43C3F",
"[  c #C8413F",
"{  c #CA3F42",
"}  c #9C4440",
"|  c #AE4542",
" . c #B34D4B",
".. c #B25452",
"X. c #C94142",
"o. c #CC4849",
"O. c #CE5B5B",
"+. c #D25B5B",
"@. c #CF5F60",
"#. c #D16363",
"$. c #D26A6A",
"%. c #D2706E",
"&. c #CB7774",
"*. c #D57371",
"=. c #D77876",
"-. c #D87975",
";. c #D97C79",
":. c #D67B7A",
">. c #C38079",
",. c #D3807B",
"<. c #DA827C",
"1. c #868781",
"2. c #BC8A84",
"3. c #A6A59B",
"4. c #C48B85",
"5. c #D68481",
"6. c #DA8581",
"7. c #DF8A87",
"8. c #DD8E8A",
"9. c #C8968F",
"0. c #DD928C",
"q. c #C89A90",
"w. c #DE9A94",
"e. c #E09D97",
"r. c #E09F99",
"t. c #E1A197",
"y. c #E2A39B",
"u. c #D2B2A9",
"i. c #D5B8AD",
"p. c #E4A6A0",
"a. c #E3ABA3",
"s. c #E4AFAA",
"d. c #E5B5AE",
"f. c #E8B2AA",
"g. c #EABAB3",
"h. c #DEC0B8",
"j. c #E7C2B9",
"k. c #EDC4BB",
"l. c #E0C9BF",
"z. c #EDCABE",
"x. c #CDC8C1",
"c. c #EFCCC3",
"v. c #E5CDC4",
"b. c #F1CEC3",
"n. c #E8D0C6",
"m. c #EDD5CA",
"M. c #F0D5C9",
"N. c #F2DACE",
"B. c #ECDCD1",
"V. c #F4DDD4",
"C. c #F3E2D6",
"Z. c #F4E4DA",
"A. c #F6E9DB",
"S. c #F8E8DA",
"D. c #F1EFE0",
"F. c #FBEEE4",
"G. c #FAF2E5",
"H. c #F9F4E8",
/* pixels */
"# 3 3 3 7 3 3 3 3 3 3 3 3 3 3 3 3 3 3 3 3 3 3 3 3 3 3 3 3 3 3 3 3 3 3 3 3 3 3 3 3 3 3 3 3 3 3 3 3 3 3 3 7 3 3 3 3 3 3 3 3 3 3 # ",
"K ) ) ) ) ) ) ) ) ) ) ) ) ) ) ) ) ) ) ) ) ) ) ) ) ) ) ) ) ) ) ) ) ) ) ) ) ) ) ) ) ) ) ) ) ) ) ) ) ) ) ) ) ) ) ) ) ) ) ) ) ) ) I ",
"K ) ) ) ) ) ) ) ) ) ) ) ) ) ) ) ) ) ) ) ) ) ) ) ) ) ) ) ) ) ) ) ) ) ) ) ) ) ) ) ) ) ) ) ) ) ) ) ) ) ) ) ) ) ) ) ) ) ) ) ) ) ) I ",
"K ) ) ) ) ) ) ) ) ) ) ) ) ) ) ) ) ) ) ) ) ) ) ) ) ) ) ) ) ) ) ) ) ) ) ) ) ) ) ) ) ) ) ) ) ) ) ) ) ) ) ) ) ) ) ) ) ) ) ) ) / / E ",
"J ) ) ) ) ) ) ) ) ) ) ) ) ) ) ) ) ) ) ) ) ) ) ) ) ) ) ) ) ) ) ) ) ) ) ) ) ) ) ) ) ) ) ) ) ) ) ) ) ) ) ) ) ) ) ) ) ) ) ) ) ) ) L ",
"K ) ) ) ) ) ) ) ) ) ) ) ) ) ) ) ) ) ) ) ) ) ) ) ) ) ) ) ) ) ) ) ) ) ) ) ) ) ) ) ) ) ) ) ) ) ) ) ) ) ) ) ) ) ) ) ) ) ) ) ) ) ) I ",
"K ) ) ) ) ) ) ) ) ) ) ) ) ) ) ) ) ) ) ) ) ) ) / ) ) ) ) ) / ) ) ) ) ) / ) ) ) ) ( ) ) ) ) ) ) ) ) ) ) ) ) ) ) ) ) ) ) ) ) ) ) L ",
"J ) ) ) ) ) ) ) ) ) ) ) ) ) ) ) ) ) ) ) / ) / / ) ) ) / ( ! / / / / / / / ) / ) / / ) ) ) ) ) ) ) ) ) ) ) ) ) ) ) ) ) ) ) ) ) L ",
"^ ) ) ) ) ) { ) ) ) ) ) ) ) ) ) ) ) ) ) ) ! ) / ) ^ / ^ I I Y U U U E E W ( ) ) ( / / / / ) ) ) ) ) ) ) ) ) ) ) ) ) ) ) ) ) ) ^ ",
"L ) ) ) ) ) ) ) ` ) ) ) ) ) ) ) ) ) ) / / ) ( Q Z y 1 - o o o o a o o o * < e V W / / / / / ) ) ) ) ) ) ) ) ) ) ) ) ) ) ) ) ) I ",
"K / ) ) ) ) ) ) ) ) ) ) ) ) ) ) ) ! / ( / E u * o o o X X X o o o o o X o a a a = e E ) ) ( ! / ) ) ) ) ) ) ) ) ) ) ) ) ) ) ) I ",
"K / ) ) ) ) ) ) ) ) ) ) ) ) ) ) / ( / ) N & a o o o o o o o o s X o o o o i i = o o o m ) / / ! ) ) ) ) ) ) ) ) ) ) ) ) ) ) ) I ",
"J / / / ) ) ) ) ) ) ) ) ) ) ) ) / / / V o o o o X o o o o o o o o o o o o o o i o o o o , E / / ) ) ) ) ) ) ) ) ) ) ) ) ) ) ) I ",
"K / ) ) ) ) ) ) ) ) ) ) ) ) ) ) ( / ( * o o o o o o o o o a a i o o o o i o o o o X X o o ; Q / ) ) ) ) ) ) ) ) ) ) ) ) ) ) ) I ",
"K ` ) ) ) ) ) ) ) ) ) ) ) ) ) ) / / n X o o o o o a o a o o i a o o o o o a o a o o o o o o m / ) ) ) ) ) ) ) ) ) ) ) ) ) ) ) I ",
"K ) ) ) ) ) ) ) ) ) ) ) ) ) ) ) / / y o o o s o i i o o o s o o o o o o o s o o o o o o o o % ^ ) ) ) ) ) ) ) ) ) ) ) ) ) ) ) I ",
"J / ) ) ) ) ) ) ) ) ) ) ) ) ) ) ) ) w o X i o o o o o o o o o o o o o o o o a o o o o o o o o Y ) ) ) ) ) ) ) ) ) ) ) ) ) ) ) ^ ",
"J / ) ) ) ) ) ) ) ) ) ) ) ) ) ) ) ) < o o o i o a o o s o o o o o a s o s o o o o o o o o o o V ) ) ) ) ) ) ) ) ) ) ) ) ` ) ) ^ ",
"J ` ) ) ) ) ) ) ) ) ) ) ) ) ) ) ) ) = o o o a o o o o o a s o a o a o i o o o o o = o o X X o m ) ) ) ) ) ) ) ) ) ) ) ) ) ) ) ^ ",
"J / ) ) ) ) ) ) ) ) ) ) ) ) ) ) ) ( = o o o o s o a o o i o o o o o o a o o o a o o o o X o o r ) ) ) ) ) ) ) ) ) ) ) ) ) ) / I ",
"I ) ) ) ) ) ) ) ) ) ) ) ) ) ) ) / ^ o o X o o a o o a o a o o s i s o a i o o o o o o o X o o 5 ) ) / ) ) ) ) ) ) ) ) ) ) ) ) ^ ",
"J ) ) ) ) ) ) ) ) ) ) ) ) ) ) / / ^ & o o o o o o o i s o o o i o o o o a o s o o o o o X o o 7 ) ) / / ) ) ) ) ) ) ) ) ) ) ) I ",
"J / ) ) ) ) ) ) ) ) ) ) ) ) / / ) W = X o o o o o a o s o o o a o a o o o o o o o i o o X X o y ) / / / ) ) ) ) ) ) ) ) ) ) ) ^ ",
"J ) ) ) ) ) ) ) ) ) ) / ) / / ! ) Q = o o o o a o o o i a o o o o = o a o o a s o a o o o o o q _ / / / ) / ) ) ) ) ) ) ) ) ) I ",
"J ) ) ) ) ) ) ) ) ) ) ) E V V V N , o o o o o o o o o o o o o o o o a o o o o o o o o a a i o o & y W / ( / ! ) ) ) ) ) ) ) ) ( ",
"J / ) ) ) ) ) ) ) ) / E % o X o a o o o o o o o o o o o o o s a o o s o o o s o o o s a o i o o X o < U ! / / ) ) ) ) ) ) ) ) ^ ",
"J ) ) ) ) ` ) ) ) / / V X X o o o o o o o o o o o a o o a i o o o o o o o o a a o o o o s a o o o X o & Y ) ) ) ) ) ) ) ) ) ) ^ ",
"J ) ) ) ) ) ) ) ) / / W $ o X o o o o o o o o o o o o o o o o o o o o o o o o o o o o = o o o o o o o X < ( / / ) ) ) ) ) ) ) ^ ",
"J ` ) ) ) ) ) ) ) / ) / b 7 ; o o o o o X o o o o o i o o s o o o o o X o o o o o o o a o o o o o o o X o Z ( ) ) ) ) ) ) ) ) ( ",
"G / ) ) ) ) ) ) ) ) / / / J v 8 ; o X o o o o o = a o o o o o o a o o s o o o o o o o o o o o o o o o o a M / ) ) ) ) ) ) ) ) ^ ",
"G / / ) ) ) ) ) ) ) ) / ( ( / J v x 4 & o o o o a a i o o o o o o o o o o o s X o o o o o o o o o o o o a 0 / ) ) ) ) ) ) ) ) ^ ",
"G ` / ) ) ) ) ) ) ) / ) / ! / / / K v z 7 ; o o i o o o o o o o o o a o o a o o o o o o o o o o X o o X = c ) ) ) ) ) ) ) ) ) ^ ",
"K ) ) ) ) ) ) ) ) ) ) ) ) ) ) ) ) ) / L A z l 4 % o o X o o o o o s o o o o o i o o o o o o o o o X o o : J / ) ) ) ) ) ) ) ) ^ ",
"J ) ) ) ) ) ) ) ) ) ) ) ) ) ) ) / ! ) ! / / K A z 6 4 % o X o o o X o o o o a = o o o o o o o o o o X ; z ^ / / ) ) ) ) ) ) ) / ",
"J ) ) ) ) ) ) ) ) ) ) ) ) ) / ) / ( / / / ( ~ ) ^ S b z 6 4 ; = a o o o o o i i o o o o o o o X o o 2 l K ! / ) ) ) ) ) ) ) ) ^ ",
"J ) ) ) ) ) ) ) ) ) ) ) ) ) ~ ^ K R  .....| Y J L / ! ^ K A v l 5 , & o = a a o o X X o o o X s , 8 v K / / ) ) ) ) ) ) ) ) ) ^ ",
"H ) ) ) ) ) ) ) ) ) ) ) ) / ) &.Z.G.G.H.G.G.G.C.i.4...E ( ) / K F v z 6 7 : h k g d f j 1.3.x.D.F.4.I / / ( / ) ) ) ) ) ) ) ) ^ ",
"H ) ) ) ) ) ) ) ) ) ) ) ) ) ) e.l.u.S.0.#.@.#.<.p.M.H.m.4.| K ^ ) ^ D } 2.m.G.V.a.6.#.+.+.=.N.i.u.p./ ) ! ( / ) ) ) ) ) ) ) ) ^ ",
"H ) ) ) ) ) ) ) ) ) ) ) ) ! ! #.C.B.d.( / ) / ) ( ^ O.g.H.G.n.9.>.9.v.G.H.z.$.( / / ) / ) ( 8.Z.V.$./ / / ) / ) ) ) ) ) ) ) ) / ",
"H ) ) ) ) ) ) ) ) ) ) ) ) / / / k.H.d./ / / / / / / / ( 0.G.G.G.G.G.G.G.s.` / ) / / / ! / ! 7.H.c.( / / ) ) ) ) ) ) ) ) ) ) ) ^ ",
"F ) ) ) ) ) ) ) ) ) ) ) ) ) ) ! $.H.j./ ) ) / L K ^ / / ( g.H.G.G.G.G.N._ / / / L K ^ ) / / w.H.*.) / ) ) ) ) ) ) ) ) ) ) ) ) ) ",
"F ) ) ) ) ) ) ) ) ) ) ) ) ) ) ) ) k.Z.' / / S b A b ( ! ! ;.G.r.o.8.G.t.) ) / F A A b / / ` z.c.` / ) ) ) ) ) ) ) ) ) ) ) ) ) ) ",
"H ) ) ) ) ) ) ) ) ) ) ) ) ) ) ) ( +.F.;./ ( / / / ) / / / =.C.' ! _ M.t.) ) ! ( / / / ) / +.F.#./ ) ) ) ) ) ) ) ) ) ) ) ) ) ) ( ",
"F / ) ) ) ) ) ) ) ) ) ) ) ) ) ) / / 0.C.X./ / ) / / / / ~ d.6.) / ) %.V.) / / / / / ! ( ( k.r.( ) ) ) ) ) ) ) ) ) ) ) ) ) ) ) ^ ",
"G ) ) ) ) ) ) ) ) ) ) ) ) ) ) ) ( / ) p.k.X./ ! / / ( ( 7.g.` ) / ( ( d.p.` ( / / ) ) _ a.a.) / ) ) ) ) ) ) ` ) ) ) ) ) ) ) ) ( ",
"H ) ` ) ) ) ) ) ) ) ) ) ) ) ) ) ) / ( ) ,.b.:.[ ( _ O.f.f.{ / ) / / ) ) y.b.%.{ ( ' $.j.5.) ) / / ) ) ) ) ) ) ) ) ) ) ) ) ) ) / ",
"F / ) ) ) ) ) ) ) ) ) ) ) ) ) ) ) / / / / ' 6.f.g.g.a.#./ / ) ) ) ) / ( ) O.w.g.g.f.<.{ / / ! ! ) ) ) ) ) ) ) ) ) ) ) ) ) ) ) ^ ",
"F ) ) ) ) ) ) ) ) ) ) ) ) ) ) ) ! ( / ( ! / ) ( / / ) / / / ) ) ) ) / / ) ( ) / ( ! / ~ / ( / / ) ) ) ) ) ) ) ) ) ) ) ) ) ) ) / ",
"F / / / ) ) ) ) ) ) ) ) ) ) ) ) ) ) ) ) ) ) ) ) ) ) / ) ) ) ) ) ) ) ) ) ) ) ) ) ) ) ) ) ) ) ) ) ) ) ) ) ) ) ) ) ) ) ) ) ) ) ) ) ",
"F ` ) ) ) ) ) ) ) ) ) ) ) ) ) ) ) ) ) ) ) ) ) ) ) ) / / ) ) ) ) ) ) ) ) ) ) ) ) ) ) ) ) ) ) ) ) ) ) ) ) ) ) ) ) ) ) ) ) ) ) ) ) ",
"F ) ) ) ) ) ) ) ) ) ) ) ) ) ) ) ) ) ) ) ) ) ) ) ) ) ) ) ) ) ) ) ) ) ) ) ) ) ) ) ) ) ) ) ) ) ) ) ) ) ) ) ) ) ) ) ) ) ) ) ) ) ) ) ",
"F ) ) ) ) ) ) ) ) ) ) ) ) ) ) ) ) ) ) ) ) ) ) ) ) ) ) ) ) ) ) ) ) ) ) ) ) ) ) ) ) ) ) ) ) ) ) ) ) ) ) ) ) ) ) ) ) ) ) ) ) ) ) ) ",
"n ) ) ) ) ) ) ) ) ) ) ) ) ) ) ) ) ) ) ) ) ) ) ) ) ) ) ) ) ) ) ) ) ) ) ) ) ) ) ) ) ) ) ) ) ) ) ) ) ) ) ) ) ) ) ) ) ) ) ) ) ) ) ) ",
"n ) ) ) ) ) ) ) ) { ) ) ) ) ) ) ) ) ) ) ) ) ) ) ) ) ) ) ) ) ) ) ) ) ) ) ) ) ) ) ) ) ) ) ) ) ) ) ) ) ) ) ) ) ) ) ) ) ) ) ) ) ) / ",
"n ) ) ) ) ) ) ) ) ) ) ) ) ) ) ) ) ) ) ) ) ) ) ) ) ) ) ) ) ) ) ) ) ) ) ) ) ) ) ) ) ) ) ) ) ) ) ) ) ) ) ) ) ) ) ) ) ) ) ) ) ) ) / ",
"n ) ) ) ) ) ) ) ) ) ) ) ) ) ) ) ) ) ) ) ) ) ) ) ) ) ) ) ) ) ) ) ) ) ) ) ) ) ) ) ) ) ) ) ) ) ) ) ) ) ) ) ) ) ) ) ) ) ) ) ) ) ) ) ",
"G ) ) ) ) ) ) ) ) ) ) ) ) ) ) ) ) ) ) ) ) ) ) ) ) ) ) ) ) ) ) ) ) ) ) ) ) ) ) ) ) ) ) ) ) ) ) ) ) ) ) ) ) ) ) ) ) ) ) ) ) ) ) ) ",
"F ) ) ) ) ) ) ) ) ) ) ) ) ) ) ) ) ) ) ) ) ) ) ) ) ) ) ) ) ) ) ) ) ) ) ) ) ) ) ) ) ) ) ) ) ) ) ) ) ) ) ) ) ) ) ) ) ) ) ) ) ) ) ) ",
"F / ) ) ) ) ) ) ) ) ) ) ) ) ) ) ) ) ) ) ) ) ) ) ) ) ) ) ) ) ) ) ) ) ) ) ) ) ) ) ) ) ) ) ) ) ) ) ) ) ) ) ) ) ) ) ) ) ) ) ) ) ) ) ",
"n / ) ) ) ) ) ) ) ) ) ) ) ) ) ) ) ) ) ) ) ) ) ) ) ) ) ) ) ) ) ) ) ) ) ) ) ) ) ) ) ) ) ) ) ) ) ) ) ) ) ) ) ) ) ) ) ) ) ) ) ) ) ( ",
"n / / ) ) ) ) ) ) ) ) ) ) ) ) ) ) ) ) ) ) ) ) ) ) ) ) ) ) ) ) ) ) ) / / ) ) ) ) ) ) ) ) ) ) ) ) ) ) ) ) ) ) ) ) ) ) ) ) ) ) ) ) ",
"n / ) ) / / ) ) ) ) ) ) ) ) ) ) ) ) ) ) ) ) ) ) ) ) ) ) ) ) ) ) ) ) ) / ) ) ) ) ) ) ) ) ) ) ) ) ) ) ) ) ) ) ) ) ) ) ) ) ) ) / ` ",
"n ) ) ) / / ) ) ) ) ) / / ! ) ) ) ) ) ) ) / / ) ) ) ) ) ) ) ) / ) / / / ) ) ) ) ) / / ) ) ) ) / ) ) ) ) / ) ) ) ) / / / / / / / ",
". @ @ @ 2 @ @ @ @ @ @ @ @ @ @ 2 @ @ + @ @ + @ @ + @ @ @ + @ + @ + @ @ @ @ @ @ @ + + + + + O + O O O + + O O . O . . . . . . . . "
};
